Coordinates
version=1
nRows=15
nColumns=63
inDegrees=yes

Units are S.I. units (second, meters, Newtons, ...)
If the header above contains a line with 'inDegrees', this indicates whether rotational values are in degrees (yes) or radians (no).

endheader
time	pelvis_tilt	pelvis_list	pelvis_rotation	pelvis_tx	pelvis_ty	pelvis_tz	hip_flexion_r	hip_adduction_r	hip_rotation_r	knee_angle_r	knee_angle_r_beta	ankle_angle_r	subtalar_angle_r	mtp_angle_r	hip_flexion_l	hip_adduction_l	hip_rotation_l	knee_angle_l	knee_angle_l_beta	ankle_angle_l	subtalar_angle_l	mtp_angle_l	L5_S1_Flex_Ext	L5_S1_Lat_Bending	L5_S1_axial_rotation	L4_L5_Flex_Ext	L4_L5_Lat_Bending	L4_L5_axial_rotation	L3_L4_Flex_Ext	L3_L4_Lat_Bending	L3_L4_axial_rotation	L2_L3_Flex_Ext	L2_L3_Lat_Bending	L2_L3_axial_rotation	L1_L2_Flex_Ext	L1_L2_Lat_Bending	L1_L2_axial_rotation	L1_T12_Flex_Ext	L1_T12_Lat_Bending	L1_T12_axial_rotation	Abs_r3	Abs_r2	Abs_r1	Abs_t1	Abs_t2	neck_flexion	neck_bending	neck_rotation	arm_flex_r	arm_add_r	arm_rot_r	elbow_flex_r	pro_sup_r	wrist_flex_r	wrist_dev_r	arm_flex_l	arm_add_l	arm_rot_l	elbow_flex_l	pro_sup_l	wrist_flex_l	wrist_dev_l
3.725000	0.049104	0.195582	93.971096	0.211527	0.726376	0.932642	4.490232	2.368931	8.413195	14.409279	0.251489	36.329009	-1.840845	0.000000	3.223592	0.676472	3.045264	11.551826	0.201617	37.389031	-5.037446	0.000000	-0.227882	0.042879	2.022079	-0.423199	0.057030	2.148459	-0.374387	0.104257	2.148459	-0.260446	0.104257	1.769319	-0.211611	0.087440	1.642939	-0.130212	0.066420	1.516559	-1.627737	0.485061	11.246198	0.000000	0.000000	4.675764	2.192868	6.163693	30.299857	-14.116537	28.839079	148.846306	85.572442	1.991070	13.093796	26.678968	-5.598435	32.205522	147.748918	87.836886	-16.801299	5.139561
3.750000	0.014147	0.327920	94.077620	0.211362	0.726325	0.933028	4.393393	2.336967	8.394141	14.503818	0.253139	36.467316	-1.886031	0.000000	3.204340	0.734880	3.215994	11.705748	0.204304	37.449357	-5.163192	0.000000	-0.242170	0.041609	1.978396	-0.449733	0.055341	2.102046	-0.397860	0.101169	2.102046	-0.276776	0.101169	1.731097	-0.224879	0.084850	1.607447	-0.138376	0.064453	1.483797	-1.729793	0.470694	11.003248	0.000000	0.000000	4.744831	2.195314	6.350866	29.534892	-15.643303	29.011206	148.986842	82.915452	6.108778	12.999992	26.010455	-6.326047	33.309645	148.007551	87.265438	-14.022367	6.192573
3.775000	-0.035578	0.494725	94.098387	0.211366	0.726427	0.933226	4.248458	2.294892	8.434342	14.581789	0.254500	36.584937	-1.879361	0.000000	3.136701	0.793501	3.301031	11.866761	0.207114	37.511941	-5.251408	0.000000	-0.258186	0.039506	1.929263	-0.479478	0.052543	2.049842	-0.424174	0.096056	2.049842	-0.295081	0.096056	1.688105	-0.239752	0.080561	1.567526	-0.147528	0.061195	1.446947	-1.844200	0.446904	10.729983	0.000000	0.000000	4.640038	2.176068	6.646213	28.618685	-16.839467	29.657611	149.122052	79.412147	10.384720	13.018209	25.368747	-7.036161	34.687350	148.304157	86.664757	-10.576210	7.075048
3.800000	-0.082307	0.704487	93.974735	0.211613	0.726696	0.933198	4.032037	2.263562	8.616247	14.611955	0.255027	36.653752	-1.861558	0.000000	2.998958	0.832680	3.232040	12.025431	0.209883	37.590570	-5.298131	0.000000	-0.277477	0.039404	1.882189	-0.515303	0.052407	1.999825	-0.455868	0.095807	1.999825	-0.317129	0.095807	1.646915	-0.257666	0.080353	1.529278	-0.158551	0.061037	1.411641	-1.981994	0.445746	10.468168	0.000000	0.000000	4.361022	2.090451	7.104923	27.624893	-17.663387	30.747966	149.250208	74.895366	14.527098	13.456334	24.733118	-7.698299	36.185771	148.641111	86.038295	-6.475500	7.843674
3.825000	-0.117176	0.958366	93.782598	0.211961	0.727136	0.932959	3.748360	2.240481	8.810509	14.610878	0.255008	36.700466	-1.763566	0.000000	2.796523	0.856361	3.144984	12.180553	0.212591	37.667418	-5.397158	0.000000	-0.300471	0.042793	1.824051	-0.558005	0.056915	1.938054	-0.493644	0.104048	1.938054	-0.343408	0.104048	1.596044	-0.279017	0.087264	1.482041	-0.171689	0.066287	1.368038	-2.146234	0.484088	10.144823	0.000000	0.000000	3.882356	1.974373	7.713729	26.651693	-18.172788	32.027782	149.361975	70.234669	18.924932	13.907625	24.084506	-8.310066	37.793545	148.956832	85.502232	-2.126613	8.111358
3.850000	-0.137766	1.251246	93.488292	0.212467	0.727731	0.932469	3.393075	2.231529	9.076265	14.564944	0.254206	36.720791	-1.617116	0.000000	2.526460	0.856515	2.962278	12.330494	0.215208	37.754645	-5.498210	0.000000	-0.325839	0.049470	1.763736	-0.605116	0.065795	1.873969	-0.535321	0.120281	1.873969	-0.372401	0.120281	1.543269	-0.302574	0.100879	1.433035	-0.186184	0.076629	1.322802	-2.327436	0.559612	9.809368	0.000000	0.000000	3.215095	1.826616	8.436465	25.803321	-18.401569	33.536740	149.448620	65.194057	23.095352	14.612394	23.384976	-8.835746	39.355319	149.273664	84.994158	2.534790	8.116942
3.875000	-0.134766	1.588659	93.146462	0.213093	0.728455	0.931711	2.951557	2.245498	9.348243	14.467784	0.252510	36.719838	-1.404140	0.000000	2.190981	0.824692	2.744334	12.488242	0.217961	37.854334	-5.618809	0.000000	-0.354512	0.059417	1.704040	-0.658363	0.079025	1.810542	-0.582427	0.144467	1.810542	-0.405171	0.144467	1.491035	-0.329199	0.121163	1.384532	-0.202568	0.092037	1.278030	-2.532240	0.672138	9.477357	0.000000	0.000000	2.420745	1.658462	9.157071	25.077628	-18.383919	34.926661	149.551280	60.510987	27.448584	15.435490	22.687301	-9.287230	40.979359	149.572687	84.582494	6.940579	7.802964
3.900000	-0.103395	1.958183	92.806033	0.213772	0.729261	0.930665	2.427475	2.287384	9.567948	14.308716	0.249734	36.686755	-1.122585	0.000000	1.810249	0.757253	2.552394	12.661156	0.220979	37.971008	-5.769349	0.000000	-0.383988	0.073297	1.640073	-0.713105	0.097485	1.742577	-0.630854	0.178214	1.742577	-0.438860	0.178214	1.435064	-0.356572	0.149467	1.332559	-0.219411	0.113537	1.230055	-2.742790	0.829148	9.121593	0.000000	0.000000	1.550778	1.457084	9.869375	24.529032	-18.218874	36.259996	149.641857	56.434915	31.477281	16.113962	21.967454	-9.638583	42.554496	149.825295	84.277429	11.078776	7.148150
3.925000	-0.068672	2.353787	92.436801	0.214617	0.730126	0.929360	1.846068	2.331228	9.767382	14.128079	0.246581	36.629629	-0.791714	0.000000	1.383854	0.678197	2.335978	12.841026	0.224118	38.097034	-5.934490	0.000000	-0.413428	0.086939	1.591297	-0.767777	0.115630	1.690753	-0.679221	0.211385	1.690753	-0.472507	0.211385	1.392385	-0.383909	0.177287	1.292929	-0.236233	0.134669	1.193473	-2.953074	0.983477	8.850318	0.000000	0.000000	0.673907	1.212280	10.452685	24.139514	-17.967591	37.476453	149.727107	52.925220	35.054999	16.837617	21.289938	-9.890664	44.001399	149.991871	84.031998	14.892187	6.279387
3.950000	-0.008968	2.762060	92.110057	0.215475	0.731007	0.927828	1.212862	2.402939	9.908300	13.908187	0.242744	36.535232	-0.465470	0.000000	0.942986	0.565539	2.147845	13.044272	0.227665	38.244826	-6.084936	0.000000	-0.441172	0.104253	1.542128	-0.819300	0.138657	1.638511	-0.724801	0.253481	1.638511	-0.504215	0.253481	1.349362	-0.409672	0.212593	1.252979	-0.252086	0.161488	1.156596	-3.151246	1.179333	8.576855	0.000000	0.000000	-0.134111	0.911012	10.992848	23.939865	-17.689005	38.574473	149.805595	50.111014	38.037261	17.565249	20.602528	-10.010034	45.232576	150.054857	83.855850	18.359929	5.210889
3.975000	0.065059	3.167323	91.837921	0.216336	0.731875	0.926111	0.547140	2.489768	9.982010	13.650303	0.238243	36.424784	-0.133698	0.000000	0.497450	0.439803	2.072127	13.257586	0.231389	38.375660	-6.313740	0.000000	-0.466141	0.124098	1.490824	-0.865670	0.165050	1.584001	-0.765823	0.301731	1.584001	-0.532752	0.301731	1.304471	-0.432858	0.253060	1.211295	-0.266353	0.192227	1.118118	-3.329596	1.403816	8.291516	0.000000	0.000000	-0.823912	0.546942	11.522527	23.910454	-17.428443	39.616983	149.866561	48.215532	40.090050	18.014303	19.895201	-10.032147	46.199830	150.052974	83.794412	21.318098	4.088321
4.000000	0.164324	3.547654	91.633156	0.217184	0.732695	0.924251	-0.116918	2.604476	9.973660	13.365919	0.233279	36.315116	0.209549	0.000000	0.074449	0.287471	2.095259	13.482722	0.235318	38.491497	-6.584689	0.000000	-0.485557	0.147625	1.431223	-0.901728	0.196341	1.520675	-0.797722	0.358936	1.520675	-0.554943	0.358936	1.252320	-0.450888	0.301037	1.162869	-0.277447	0.228671	1.073417	-3.468285	1.669965	7.960034	0.000000	0.000000	-1.394820	0.117743	12.089358	24.003491	-17.176387	40.607479	149.888525	47.003424	41.207590	18.087365	19.143897	-9.994129	46.884900	150.009936	83.844555	23.567418	2.935010
4.025000	0.281851	3.900052	91.513781	0.217998	0.733446	0.922321	-0.769463	2.741502	9.870259	13.055525	0.227862	36.220639	0.566318	0.000000	-0.316303	0.117675	2.248418	13.721301	0.239482	38.589765	-6.916655	0.000000	-0.501122	0.173222	1.356988	-0.930633	0.230385	1.441800	-0.823293	0.421171	1.441800	-0.572732	0.421171	1.187365	-0.465341	0.353234	1.102553	-0.286341	0.268320	1.017741	-3.579461	1.959518	7.547160	0.000000	0.000000	-1.842925	-0.327496	12.716934	24.195689	-16.929165	41.518947	149.862484	46.333463	41.591899	17.758910	18.346564	-9.938232	47.330696	149.955863	84.034922	24.862783	1.828556
4.050000	0.417178	4.210451	91.480597	0.218759	0.734100	0.920393	-1.384222	2.902592	9.696106	12.724036	0.222076	36.153058	0.915731	0.000000	-0.651109	-0.066426	2.544962	13.979332	0.243985	38.668233	-7.328795	0.000000	-0.512963	0.200785	1.265431	-0.952624	0.267044	1.344521	-0.842748	0.488188	1.344521	-0.586266	0.488188	1.107252	-0.476338	0.409440	1.028163	-0.293107	0.311015	0.949073	-3.664046	2.271316	7.037949	0.000000	0.000000	-2.162744	-0.789965	13.437894	24.471098	-16.665003	42.336176	149.829182	46.417104	41.463312	17.194423	17.481181	-9.900536	47.699121	149.911602	84.400014	24.845108	0.655531
4.075000	0.569531	4.466336	91.527594	0.219440	0.734628	0.918550	-1.934896	3.085100	9.456745	12.380558	0.216082	36.128065	1.264067	0.000000	-0.909949	-0.263646	2.959977	14.257719	0.248844	38.735783	-7.789978	0.000000	-0.520536	0.229500	1.160721	-0.966687	0.305235	1.233266	-0.855188	0.558006	1.233266	-0.594920	0.558006	1.015631	-0.483369	0.467996	0.943086	-0.297434	0.355495	0.870541	-3.718135	2.596149	6.455581	0.000000	0.000000	-2.366748	-1.225482	14.206313	24.789961	-16.401753	43.037174	149.820198	47.648662	41.003162	16.090067	16.518147	-9.893493	48.092981	149.895043	84.914956	23.572981	-0.560445
